/* XPM */
static char *_cb1a53453cd40139b7db195cdea4b43H0mkb1UTf8qS3v2N[] = {
/* columns rows colors chars-per-pixel */
"35 34 6 1 ",
"  c None",
". c black",
"X c #3A0911",
"o c #811426",
"O c #A11B31",
"+ c white",
/* pixels */
"                                   ",
"                                   ",
"                                   ",
"                                   ",
"           XXXXXXX                 ",
"          XoOOOOOOX                ",
"         XoOOOXXXXOX               ",
"        XoOOOX....XOX              ",
"        XoOOX......XOX             ",
"       XooOOX......XOX             ",
"       XoooOX.+...+XOX             ",
"       XoXoOX.+...+XOX             ",
"       XoXoOX......XoX             ",
"        XXooOX.....XoX             ",
"          XoooX...XoX              ",
"           XXooXXXoX               ",
"          XoooOOOOOoX              ",
"         XoOOOOOOOOOoX             ",
"         XoOOOOOOOOOoX             ",
"         XOOOOOOOOOOOX             ",
"        XoOOOOOOOOOOOX             ",
"        XoOOOOOOoOOOOoX            ",
"        XoOOOOOOoOOOOoX            ",
"        XoOOOOOoXoOOooX            ",
"       XoooOoOooXooOooX            ",
"       XooooOooX.XooooX            ",
"       XoXooooX..XooXoX            ",
"        XXoXooX...XooX             ",
"         XX XXX  .XXX              ",
"            ..    .                ",
"             .    .                ",
"             .    .                ",
"                                   ",
"                                   "
};
