/* XPM */
static char *cd319fe09f034cb1d6639bf32e03b726n8QyftuqtLb5PdC8[] = {
/* columns rows colors chars-per-pixel */
"50 50 38 1 ",
"  c None",
". c #CDA86A",
"X c #AF8A4F",
"o c #3A2B1C",
"O c #DDBD84",
"+ c #433220",
"@ c #2E2316",
"# c #EECD97",
"$ c #F49B99",
"% c #6C5235",
"& c #60482E",
"* c #543F28",
"= c #F4A7A6",
"- c #F4DFA7",
"; c #5D451F",
": c #FEFEFD",
"> c #487435",
", c #639F48",
"< c #4B3819",
"1 c #9E7D48",
"2 c #C8BFAA",
"3 c #BBB19A",
"4 c #E3DBC6",
"5 c #283547",
"6 c #F3EDDD",
"7 c #D9D0BA",
"8 c #EABC3E",
"9 c #2D3D51",
"0 c #374A63",
"q c #33455C",
"w c #222E3E",
"e c #D4AE77",
"r c #CD9F6E",
"t c #8A663E",
"y c #755A3D",
"u c #836544",
"i c #92704C",
"p c #825C43",
/* pixels */
"                                                  ",
"                                                  ",
"                       ..   X                     ",
"                     o.OO.+oo@@                   ",
"                   @o.O#$.%%%&@                   ",
"                  @*.O#$=.&&&&&@                  ",
"                  @&.##$=#.&&*%@                  ",
"                 @&.O#$==#.**%%&@                 ",
"                 @&.##$=--+%%%&&@                 ",
"                o++++++++o&&&&&&@                 ",
"              o+*&&&&&***+++++o**@                ",
"             +&&%%%%%%%%%%%&&&&o++++++++          ",
"            +&%%%%%%%%%%%%%%%%%%%&&&&**o          ",
"           @*&&%%&&&&&&&&&&&&&&***@@@@o           ",
"          @***&&&+oooooooooooooo@@                ",
"          @@@@@@@.---------;;;--.                 ",
"                 .#-------;:>,--.                 ",
"                  .#-----;;:>>---.                ",
"                  XO#-----------<.                ",
"                   XO#----------#.                ",
"                    XO#-------##.                 ",
"                     XXO######..                  ",
"                      1XXXXX..                    ",
"                    223454423                     ",
"                   26642256662                    ",
"                   76444475227                    ",
"                  766442668999                    ",
"                  764424669009                    ",
"                  764424469059                    ",
"                  76443444909q                    ",
"                  74473444905q                    ",
"                  37733779000w                    ",
"                  333OX2290009                    ",
"                 .XeOOeX990009                    ",
"                .O1eeOOX000009                    ",
"              ..Oer1rer1qqq09                     ",
"             XOerrt 11100qqq9                     ",
"           XXOertt   5000009                      ",
"          XOerrt     *+++++w                      ",
"         1eertt      *%%yu*o                      ",
"         1rrt        *%yuu*o                      ",
"          tt         *%yuu*o+++                   ",
"                     *%yuu*yyyu+                  ",
"                     *%yuui**yyo                  ",
"                     *%yyuuii*yo                  ",
"                     @+%yyyyy+o@                  ",
"                      @oo%%%%+@                   ",
"                       @@oo++@                    ",
"                         @@@@                     ",
"                                                  "
};
