/* XPM */
static char *c34bee8217484c46e4430bfbd1c53c97FmqMOGKOEra5s4gq[] = {
/* columns rows colors chars-per-pixel */
"50 50 37 1 ",
"  c None",
". c #CDA86A",
"X c #3A2B1C",
"o c #2E2316",
"O c #DDBD84",
"+ c #EECD97",
"@ c #543F28",
"# c #F49B99",
"$ c #60482E",
"% c #6C5235",
"& c #F4A7A6",
"* c #433220",
"= c #F4DFA7",
"- c #5D451F",
"; c #FEFEFD",
": c #487435",
"> c #639F48",
", c #AF8A4F",
"< c #4B3819",
"1 c #BBB19A",
"2 c #283547",
"3 c #E3DBC6",
"4 c #F3EDDD",
"5 c #C8BFAA",
"6 c #D9D0BA",
"7 c #EABC3E",
"8 c #2D3D51",
"9 c #374A63",
"0 c #33455C",
"q c #D4AE77",
"w c #222E3E",
"e c #CD9F6E",
"r c #9E7D48",
"t c #836544",
"y c #755A3D",
"u c #92704C",
"i c #825C43",
/* pixels */
"                                                  ",
"                  .. XXo  oXX ..                  ",
"                 .O+.@@@oo@@@.+O.                 ",
"                 .+#O.$%@@%$.O#+.                 ",
"                .O#&+.%%%%%%.+&#O.                ",
"                .O#&#+%%%%%%+#&#O.                ",
"              oo.O&&&+@%%%%@+&&&O.oo              ",
"            *X@@.O&&&+*%%%%*+&&&O.@@X*            ",
"          **$$$@.+&#+X@$%%$@X+#&+.@$$$**          ",
"         *$%%%%$@*XXX@$$$$$$@XXX*@$%%%%$*         ",
"         X@$%%%%%%%$@********@$%%%%%%%$@X         ",
"          oo@@$$%%%%%%%%%%%%%%%%%%$$@@oo          ",
"            oooo@@@$$$$$$$$$$$$@@@oooo            ",
"                ooXXXXXXXXXXXXXXoo                ",
"                 .==---====---==.                 ",
"                 .+-;:>====:>;-+.                 ",
"                 ,--;::====::;--,                 ",
"                  .============.                  ",
"                  ,+====<<====+,                  ",
"                   ,O+======+O,                   ",
"                    ,,O++++O,,                    ",
"                  1123,,,,,,3211                  ",
"                 1432433553342341                 ",
"                 5436244114426345                 ",
"                543532115611235345                ",
"                543537888888735345                ",
"                543548999999845345                ",
"                533538028820835335                ",
"                536138080080831635                ",
"                115138020020831511                ",
"               ,OOq16209ww90261qOO,               ",
"               ,OOq189999999981qqq,               ",
"               ,qqe129999999921eqq,               ",
"                ,rr899999999998rr,                ",
"                   890000000098                   ",
"                   800000000008                   ",
"                   800922ww9008                   ",
"                   899982w89998                   ",
"                   @***XXXX***@                   ",
"                   @tyy@@X%yyt@                   ",
"                   @uty%@X%ytu@                   ",
"                   @uty%@X%ytu@                   ",
"                  @utty%@X%yttu@                  ",
"                 @uttyy%XX%yyttu@                 ",
"                 @yyyy%XooX%yyyy@                 ",
"                 *%%%%Xo  oX%%%%*                 ",
"                 o*XXXo    oXXX*o                 ",
"                  oooo      oooo                  ",
"                                                  ",
"                                                  "
};
